<svg id="visual" viewBox="0 0 900 600" width="900" height="600" xmlns="http://www.w3.org/2000/svg" xmlns:xlink="http://www.w3.org/1999/xlink" version="1.1"><rect x="0" y="0" width="900" height="600" fill="#001220"></rect><defs><linearGradient id="grad1_0" x1="33.3%" y1="0%" x2="100%" y2="100%"><stop offset="20%" stop-color="#001220" stop-opacity="1"></stop><stop offset="80%" stop-color="#001220" stop-opacity="1"></stop></linearGradient></defs><defs><linearGradient id="grad2_0" x1="0%" y1="0%" x2="66.7%" y2="100%"><stop offset="20%" stop-color="#001220" stop-opacity="1"></stop><stop offset="80%" stop-color="#001220" stop-opacity="1"></stop></linearGradient></defs><g transform="translate(900, 0)"><path d="M0 459.7C-36.9 380 -73.9 300.3 -110.6 267C-147.3 233.7 -183.9 246.9 -243.2 243.2C-302.6 239.6 -384.8 219.3 -424.7 175.9C-464.6 132.6 -462.2 66.3 -459.7 0L0 0Z" fill="#FBAE3C"></path></g><g transform="translate(0, 600)"><path d="M0 -459.7C70 -465.6 140 -471.6 175.9 -424.7C211.9 -377.9 213.8 -278.2 219.9 -219.9C226.1 -161.6 236.5 -144.6 277.2 -114.8C317.8 -85 388.8 -42.5 459.7 0L0 0Z" fill="#FBAE3C"></path></g></svg>